:SAMPLES-PER-SECOND 30
:FULLY-SPECIFIED
:DEGREES
884
root  25.1886 28.9454 -21.78 45.0067 -11.4103 101.548
Spine  2.16963 1.66064 10.1517
Spine1  1.16543 0.613655 -3.4624
Neck  3.97569e-016 0 -2.38542e-015
Head  -49.8352 -6.24827 9.28024
R_Clavicle  0.401154 -12.8857 1.89745
R_UpperArm  29.6 17.3132 2.77253
R_Forearm  22.6037 11.5756 -9.82268
R_Hand  0.31681 4.27326 -4.72909
L_Clavicle  -0.594001 20.6509 -0.0937138
L_UpperArm  -13.7324 14.6906 32.0741
L_Forearm  12.0132 32.9151 38.2542
L_Hand  0.849334 7.16159 7.82538
L_Thigh  -1.4389 15.1273 30.0103
L_Calf  7.63169 -1.08374 7.85471
L_Foot  -0.134796 -3.48098 4.27473
L_Toe0  0.513853 0.024174 -6.14112
R_Thigh  12.5925 -18.8341 -7.77714
R_Calf  14.5124 4.15304 13.2083
R_Foot  5.83652 22.0651 -7.87207
R_Toe0  10.7851 -1.87506 -9.67824
885
root  24.9729 29.6204 -20.5598 48.1365 -10.5071 100.774
Spine  2.68519 1.63601 8.61595
Spine1  1.96769 -0.562871 -2.25054
Neck  3.97569e-016 0 -2.38542e-015
Head  -50.3322 -5.11377 10.3517
R_Clavicle  0.382562 -10.977 1.75921
R_UpperArm  26.2697 18.2875 -3.57517
R_Forearm  22.7389 9.5094 -8.02341
R_Hand  0.168294 4.44134 -6.44618
L_Clavicle  -0.659848 21.5729 -0.81722
L_UpperArm  -12.5271 16.1621 32.973
L_Forearm  10.1283 32.6184 38.0501
L_Hand  0.748376 7.12874 6.93573
L_Thigh  -3.29593 12.424 26.5184
L_Calf  6.5488 -1.32415 9.62697
L_Foot  0.890262 -0.0717728 4.46926
L_Toe0  0.436328 0.0234463 -6.09716
R_Thigh  18.4016 -15.9124 -9.3611
R_Calf  10.6182 3.37224 10.691
R_Foot  6.49301 25.2627 -8.71944
R_Toe0  12.2327 -3.16228 -3.98093
886
root  24.77 30.1086 -19.336 51.5448 -9.38358 100.672
Spine  3.48791 2.23435 7.94939
Spine1  2.8826 -3.13201 -1.96346
Neck  3.97569e-016 0 -2.38542e-015
Head  -50.8743 -3.94463 11.9695
R_Clavicle  0.375167 -9.04931 1.75518
R_UpperArm  24.2911 19.9076 -7.80777
R_Forearm  24.6489 6.51017 -5.46253
R_Hand  -0.0143198 4.04127 -7.81894
L_Clavicle  -0.70068 21.772 -1.43875
L_UpperArm  -10.5644 16.2539 33.5117
L_Forearm  5.30397 31.6964 37.5565
L_Hand  0.71396 7.31442 6.53725
L_Thigh  -4.07711 9.28983 23.2757
L_Calf  6.84451 -1.55934 11.3989
L_Foot  1.43786 1.69236 4.64965
L_Toe0  0.0507707 0.0213698 -5.87852
R_Thigh  22.2576 -13.0214 -10.2842
R_Calf  9.1141 2.84923 9.00583
R_Foot  6.73074 26.4523 -9.01284
R_Toe0  8.69151 -3.46612 5.09785
887
root  24.5939 30.3837 -18.0841 55.359 -7.87777 100.996
Spine  4.51618 3.1954 8.41232
Spine1  3.89807 -6.52023 -2.43948
Neck  3.97569e-016 0 -2.38542e-015
Head  -51.2508 -2.90364 13.5474
R_Clavicle  0.394757 -6.91748 1.94894
R_UpperArm  24.0265 21.5616 -9.63145
R_Forearm  27.0641 3.30676 -2.77235
R_Hand  -0.158596 3.46598 -8.68238
L_Clavicle  -0.685698 21.0951 -1.74895
L_UpperArm  -9.48806 15.6184 32.9416
L_Forearm  0.982831 30.2418 36.962
L_Hand  0.650857 7.24638 6.00869
L_Thigh  -4.29745 5.63044 20.1284
L_Calf  6.96794 -1.68933 12.3948
L_Foot  1.83519 2.48229 5.38824
L_Toe0  -0.175094 0.0203094 -5.75048
R_Thigh  23.8399 -10.2726 -10.8508
R_Calf  7.688 2.52983 7.95986
R_Foot  7.18796 27.4831 -7.52165
R_Toe0  5.01726 -2.36249 13.2737
888
root  24.4642 30.3964 -16.8505 59.8844 -6.3109 102.563
Spine  5.15515 3.3672 8.87709
Spine1  4.7039 -9.82448 -2.82567
Neck  3.97569e-016 0 -2.38542e-015
Head  -51.4845 -1.71294 14.2593
R_Clavicle  0.389716 -4.91261 1.93843
R_UpperArm  25.242 23.1232 -8.70141
R_Forearm  29.7288 0.557308 -0.483035
R_Hand  -0.242055 3.04738 -9.1187
L_Clavicle  -0.634429 20.0829 -1.63368
L_UpperArm  -9.36344 14.2293 31.3837
L_Forearm  -2.48859 27.5962 35.4708
L_Hand  0.414111 6.5073 4.13437
L_Thigh  -5.28961 0.832128 18.0353
L_Calf  5.56069 -1.59817 11.7675
L_Foot  2.49135 3.4905 6.89174
L_Toe0  -0.0958684 0.0210176 -5.7954
R_Thigh  22.9899 -8.29455 -10.162
R_Calf  9.11521 1.95935 6.14704
R_Foot  7.29595 26.3319 -4.6021
R_Toe0  3.67231 -1.57115 16.5129
889
root  24.3821 30.1119 -15.6113 64.9232 -5.08061 105.307
Spine  5.28232 2.89507 8.63446
Spine1  5.1037 -13.0557 -2.38391
Neck  3.97569e-016 0 -2.38542e-015
Head  -51.7094 -0.411522 14.275
R_Clavicle  0.345355 -3.75995 1.68411
R_UpperArm  26.8351 24.3965 -5.30981
R_Forearm  32.4969 -1.79435 1.47203
R_Hand  -0.336845 2.90939 -10.0509
L_Clavicle  -0.600381 19.4928 -1.39786
L_UpperArm  -11.714 11.6997 29.5536
L_Forearm  -6.25001 24.4149 31.7646
L_Hand  0.0781528 5.22397 1.02524
L_Thigh  -7.17127 -4.61554 16.9792
L_Calf  3.64442 -1.30265 9.66218
L_Foot  3.13464 3.69251 9.28859
L_Toe0  0.252303 0.0233395 -5.99281
R_Thigh  20.0888 -7.30606 -8.01194
R_Calf  12.7411 0.643374 2.04387
R_Foot  6.34391 22.0485 -2.897
R_Toe0  6.2762 -3.43296 16.7217
890
root  24.3092 29.5452 -14.2921 70.0795 -3.61497 107.905
Spine  5.30373 2.73834 8.4254
Spine1  5.11323 -16.2853 -0.946185
Neck  3.97569e-016 0 -2.38542e-015
Head  -51.7232 0.458503 14.4493
R_Clavicle  0.300274 -3.73367 1.41004
R_UpperArm  27.6673 24.8497 -0.421628
R_Forearm  34.6387 -3.83735 3.17545
R_Hand  -0.490745 3.38708 -12.2955
L_Clavicle  -0.59493 19.4198 -1.3227
L_UpperArm  -16.0817 8.64475 27.7107
L_Forearm  -12.4141 20.4177 25.4539
L_Hand  -0.208116 4.39857 -2.26338
L_Thigh  -8.1827 -9.64571 15.6569
L_Calf  2.71471 -0.76054 5.85886
L_Foot  3.84924 3.07744 13.0532
L_Toe0  0.529397 0.0256 -6.14992
R_Thigh  15.8062 -6.58337 -5.84645
R_Calf  11.0835 -1.60515 -4.99265
R_Foot  4.84246 17.059 -4.24203
R_Toe0  6.49115 -3.96723 19.6688
891
root  24.1985 28.7666 -12.8832 75.408 -1.11225 109.823
Spine  5.27442 2.62703 8.77476
Spine1  4.73074 -18.5402 1.26831
Neck  3.97569e-016 0 -2.38542e-015
Head  -51.4414 0.651443 14.945
R_Clavicle  0.239417 -4.6867 0.984147
R_UpperArm  27.6752 23.9223 5.46345
R_Forearm  34.9485 -4.83267 4.00819
R_Hand  -0.68697 4.90864 -15.3286
L_Clavicle  -0.581489 19.2686 -1.08839
L_UpperArm  -19.7813 6.10855 25.087
L_Forearm  -20.9553 14.1829 16.9609
L_Hand  -0.433754 5.28431 -4.38786
L_Thigh  -7.07898 -13.9773 12.8826
L_Calf  3.15652 0.00692156 0.581406
L_Foot  4.9669 2.7193 18.1264
L_Toe0  0.505156 0.0266741 -6.13617
R_Thigh  11.8078 -5.90467 -4.92157
R_Calf  3.1279 -4.959 -15.6254
R_Foot  4.44157 15.2922 -2.40848
R_Toe0  -3.70122 1.35246 6.58371
892
root  23.9647 28.0168 -11.4153 81.1648 1.67651 111.515
Spine  4.98871 1.67406 8.81834
Spine1  4.09773 -18.7335 3.53875
Neck  3.97569e-016 0 -2.38542e-015
Head  -51.2614 0.560131 15.2169
R_Clavicle  0.160035 -6.54902 0.286619
R_UpperArm  27.6658 20.9887 12.2093
R_Forearm  32.2595 -4.10829 3.39929
R_Hand  -0.880216 7.0527 -17.7604
L_Clavicle  -0.535137 18.5441 -0.349018
L_UpperArm  -21.1017 4.04871 20.6573
L_Forearm  -27.7148 6.1045 7.08388
L_Hand  -0.482624 7.11877 -4.1241
L_Thigh  -4.45745 -17.3104 8.47298
L_Calf  5.22856 0.638452 -3.73896
L_Foot  6.22408 2.61946 23.2208
L_Toe0  0.505156 0.0282152 -6.13615
R_Thigh  10.1875 -6.27261 -4.7696
R_Calf  -3.02748 -8.27134 -26.7951
R_Foot  4.34553 14.6138 1.2045
R_Toe0  -11.6623 1.72503 -10.3322
893
root  23.5005 27.655 -9.89296 87.1122 3.19577 112.907
Spine  4.38852 0.0399495 7.63227
Spine1  3.49207 -17.1639 4.60773
Neck  3.97569e-016 0 -2.38542e-015
Head  -51.1753 0.633589 15.4484
R_Clavicle  0.137147 -9.17242 -0.270787
R_UpperArm  27.6598 15.4954 18.7982
R_Forearm  26.4572 -2.48556 2.04214
R_Hand  -0.964396 8.6933 -18.723
L_Clavicle  -0.473994 16.8558 0.438379
L_UpperArm  -19.4295 2.34869 14.5545
L_Forearm  -29.1246 -1.80952 -2.10451
L_Hand  -0.29257 7.92413 -2.27798
L_Thigh  -1.4205 -18.7366 3.42998
L_Calf  8.62254 0.836018 -5.01248
L_Foot  7.48446 3.32507 26.6923
L_Toe0  0.505156 0.0301278 -6.13614
R_Thigh  11.1373 -8.04501 -4.05987
R_Calf  -1.84989 -10.655 -35.6745
R_Foot  4.38019 14.5962 2.93399
R_Toe0  -0.994204 -0.43964 -18.0499
894
root  22.7621 27.8763 -8.32133 92.553 3.09461 113.328
Spine  3.42075 -1.64342 5.43924
Spine1  2.82693 -14.6545 3.63817
Neck  3.97569e-016 0 -2.38542e-015
Head  -50.2532 0.7562 16.6153
R_Clavicle  0.19316 -12.0864 -0.334761
R_UpperArm  26.671 7.95987 23.9059
R_Forearm  18.4774 -1.76325 1.43886
R_Hand  -0.891053 9.42619 -18.3184
L_Clavicle  -0.404595 13.9165 0.597527
L_UpperArm  -16.3901 2.05746 8.6273
L_Forearm  -25.8231 -7.69528 -8.99067
L_Hand  -0.11133 7.99987 -0.723636
L_Thigh  1.94819 -17.7406 -1.81167
L_Calf  12.2142 0.423306 -1.98349
L_Foot  8.15802 4.169 27.6003
L_Toe0  0.511255 0.0329635 -6.19577
R_Thigh  12.4392 -10.2171 -2.34365
R_Calf  1.53993 -11.8591 -40.6075
R_Foot  4.17667 13.9862 2.84822
R_Toe0  -1.78854 -0.272775 -17.3235
895
root  21.7373 28.6814 -6.70045 97.1576 2.11146 112.235
Spine  1.97776 -3.40196 2.85286
Spine1  1.77733 -10.6444 1.04189
Neck  3.97569e-016 0 -2.38542e-015
Head  -47.7569 0.321272 18.8295
R_Clavicle  0.26903 -14.809 -0.102274
R_UpperArm  24.2671 0.392719 27.6384
R_Forearm  9.82465 -2.81248 2.31183
R_Hand  -0.732834 9.73079 -17.2734
L_Clavicle  -0.311476 10.5923 0.310345
L_UpperArm  -13.5941 3.89939 5.10091
L_Forearm  -21.3954 -11.3394 -13.4017
L_Hand  0.0183711 8.34514 0.371681
L_Thigh  6.15017 -14.4755 -7.35401
L_Calf  14.0667 -0.667011 5.70651
L_Foot  7.39083 4.03767 25.0724
L_Toe0  0.476341 0.030046 -5.86461
R_Thigh  12.6457 -11.401 -0.191973
R_Calf  0.854668 -11.902 -40.8037
R_Foot  3.57687 12.1643 3.34589
R_Toe0  -1.78887 -0.272526 -17.323
896
root  20.4691 29.8887 -5.04256 101.036 0.943969 109.678
Spine  0.123169 -5.76475 0.198839
Spine1  0.239132 -4.0871 -1.94441
Neck  3.97569e-016 0 -2.38542e-015
Head  -44.1861 -1.06524 20.6601
R_Clavicle  0.323577 -17.1151 0.0588368
R_UpperArm  20.7852 -5.00755 31.2562
R_Forearm  3.73798 -5.09604 4.22201
R_Hand  -0.677673 10.0245 -16.9659
L_Clavicle  -0.25784 8.67502 0.256839
L_UpperArm  -10.9663 6.97254 4.43771
L_Forearm  -18.0737 -13.2159 -15.7447
L_Hand  0.184737 8.55789 1.70737
L_Thigh  9.84414 -9.52814 -11.4801
L_Calf  13.3957 -1.91805 14.6928
L_Foot  4.80445 3.07212 16.788
L_Toe0  0.1107 -0.0074142 -1.45793
R_Thigh  12.2357 -11.3754 1.85638
R_Calf  -2.65036 -10.8561 -36.4984
R_Foot  3.31122 11.3773 4.15434
R_Toe0  -1.78953 -0.272 -17.3224
897
root  19.1278 31.1701 -3.40148 104.083 -0.0535232 106.347
Spine  -1.79582 -8.22114 -2.18055
Spine1  -1.65825 3.70631 -4.46832
Neck  3.97569e-016 0 -2.38542e-015
Head  -40.5422 -2.92076 20.6914
R_Clavicle  0.353691 -18.7526 0.0176489
R_UpperArm  16.9054 -7.77255 35.3205
R_Forearm  4.00554 -7.89142 6.58564
R_Hand  -0.879792 10.335 -18.3886
L_Clavicle  -0.280092 8.73089 0.560538
L_UpperArm  -8.23568 9.73381 5.70742
L_Forearm  -14.7743 -13.7264 -16.3909
L_Hand  0.349871 8.73945 3.03189
L_Thigh  9.27429 -4.09674 -11.732
L_Calf  11.3298 -2.49062 18.9971
L_Foot  1.07384 2.32318 2.21808
L_Toe0  -1.49172 0.320818 9.37462
R_Thigh  11.8568 -10.9835 3.73107
R_Calf  -3.70244 -8.90428 -29.0837
R_Foot  3.24313 11.1518 3.53284
R_Toe0  -1.79042 -0.271256 -17.3216
898
root  17.9083 32.2606 -1.8283 106.13 -0.59489 103.183
Spine  -3.52823 -9.19573 -3.89173
Spine1  -3.71931 9.64059 -6.4759
Neck  3.97569e-016 0 -2.38542e-015
Head  -37.2077 -4.45048 18.8181
R_Clavicle  0.357763 -19.2111 -0.164744
R_UpperArm  13.7886 -9.38409 39.055
R_Forearm  10.4232 -10.9129 9.19043
R_Hand  -1.21854 10.3688 -20.6486
L_Clavicle  -0.291319 9.41515 0.486356
L_UpperArm  -6.06678 11.7078 8.01841
L_Forearm  -9.79425 -13.3558 -15.9175
L_Hand  0.4468 10.0742 3.49723
L_Thigh  3.18918 0.702757 -10.9304
L_Calf  5.10107 -2.72396 20.653
L_Foot  -1.53975 4.2706 -10.8122
L_Toe0  -6.91416 1.79472 12.8432
R_Thigh  11.3483 -11.1632 5.28844
R_Calf  -1.30409 -6.35026 -20.2129
R_Foot  2.59088 9.06144 2.1052
R_Toe0  -1.79143 -0.270353 -17.3206
